<?xml version="1.0" encoding="UTF-8" standalone="no"?>
<!DOCTYPE svg PUBLIC "-//W3C//DTD SVG 1.1//EN" "http://www.w3.org/Graphics/SVG/1.1/DTD/svg11.dtd">
<svg width="100%" height="100%" viewBox="0 0 1024 1024" version="1.1" xmlns="http://www.w3.org/2000/svg" xmlns:xlink="http://www.w3.org/1999/xlink" xml:space="preserve" xmlns:serif="http://www.serif.com/" style="fill-rule:evenodd;clip-rule:evenodd;stroke-linejoin:round;stroke-miterlimit:2;">
    <g transform="matrix(1,0,0,1,-2204.729484,0)">
        <g id="Solo-Icono" serif:id="Solo Icono" transform="matrix(0.206425,0,0,0.291915,2204.729484,0)">
            <rect x="0" y="0" width="4960.63" height="3507.874" style="fill:none;"/>
            <g transform="matrix(10.801754,0,0,7.531501,-7466.082343,314.459441)">
                <path d="M1049.609,271.332L999.9,239.476L890.706,304.331C889.126,305.27 887.157,305.265 885.581,304.319L802.196,254.287C800.705,253.392 799.785,251.786 799.769,250.047L798.561,121.226C798.544,119.439 799.482,117.779 801.021,116.872L942.411,33.488C944.008,32.546 945.994,32.565 947.573,33.537L1051.269,97.392C1050.209,99.235 1049.602,101.371 1049.602,103.648C1049.602,106.002 1050.25,108.205 1051.377,110.089L998.16,146.959C996.55,148.075 994.437,148.147 992.754,147.145L916.512,101.725C916.387,101.65 916.266,101.571 916.149,101.487L842.36,146.955L841.946,177.61C840.221,176.719 838.263,176.216 836.189,176.216C834.703,176.216 833.277,176.474 831.954,176.948L832.398,144.072C832.421,142.361 833.318,140.78 834.775,139.883L945.955,71.376C947.641,70.337 949.782,70.391 951.413,71.514L982.877,93.172C983.429,93.552 983.881,94.024 984.227,94.553C983.279,96.319 982.742,98.338 982.742,100.48C982.742,100.815 982.755,101.147 982.781,101.475C981.133,102.552 978.928,102.594 977.207,101.409L948.427,81.598L925.736,95.58L995.109,136.908L1042.759,103.895L944.895,43.632L808.587,124.019L809.742,247.153L888.166,294.209L906.832,283.122L833.561,237.855C832.066,236.931 831.166,235.291 831.19,233.533L831.636,200.506C833.048,201.055 834.583,201.357 836.189,201.357C838.142,201.357 839.992,200.911 841.642,200.114L841.227,230.836L891.002,261.588L892.808,192.859L863.654,173.696C861.348,172.18 860.707,169.077 862.223,166.771C863.738,164.465 866.841,163.823 869.147,165.339L900.626,186.031C902.072,186.981 902.923,188.611 902.878,190.34L900.846,267.669L913.095,275.237L913.095,181.873L875.124,156.77C872.822,155.248 872.188,152.143 873.71,149.841C875.232,147.539 878.337,146.906 880.639,148.428L917.966,173.106L953.566,147.34C955.802,145.722 958.93,146.223 960.548,148.459C962.166,150.694 961.665,153.823 959.429,155.441L923.095,181.738L923.095,273.463L930.439,269.101C930.231,268.537 930.121,267.926 930.132,267.289L931.399,189.485C931.427,187.746 932.357,186.146 933.855,185.262L967.785,165.213C970.161,163.809 973.23,164.598 974.634,166.974C976.037,169.35 975.248,172.418 972.872,173.822L941.352,192.447L940.198,263.305L997.447,229.302C999.073,228.336 1001.105,228.371 1002.698,229.391L1053.955,262.241C1051.388,264.462 1049.728,267.703 1049.609,271.332ZM1056.186,282.805L934.207,355.089C933.028,355.788 931.677,355.946 930.443,355.637C929.961,353.102 928.716,350.836 926.957,349.087C927.337,348.033 928.071,347.101 929.109,346.486L1049.988,274.854C1050.86,278.284 1053.145,281.154 1056.186,282.805ZM767.14,179.992L767.14,103.052C767.14,101.264 768.095,99.612 769.645,98.719L900.763,23.19C901.615,22.699 902.552,22.488 903.468,22.527C904.112,25.321 905.688,27.761 907.851,29.5C907.439,30.458 906.727,31.295 905.755,31.855L777.14,105.942L777.14,180.481C775.463,179.652 773.575,179.185 771.578,179.185C770.016,179.185 768.52,179.471 767.14,179.992ZM777.14,203.03L777.14,268.219L883.385,332.889L981.119,276.368C981.637,276.068 982.187,275.872 982.745,275.773C982.743,275.858 982.742,275.943 982.742,276.028C982.742,279.473 984.131,282.596 986.379,284.868C986.296,284.922 986.212,284.975 986.125,285.025L885.822,343.031C884.239,343.947 882.282,343.925 880.72,342.974L769.541,275.3C768.05,274.392 767.14,272.774 767.14,271.029L767.14,203.519C768.52,204.041 770.016,204.326 771.578,204.326C773.575,204.326 775.463,203.86 777.14,203.03Z" style="fill:white;stroke:white;stroke-width:0.45px;"/>
            </g>
            <g transform="matrix(10.801754,0,0,7.531501,-7466.082343,314.459441)">
                <circle cx="772.21" cy="190.101" r="12.568" style="fill:none;stroke:white;stroke-width:4.52px;stroke-linecap:round;stroke-miterlimit:1.5;"/>
            </g>
            <g transform="matrix(10.801754,0,0,7.531501,-6764.323028,314.459441)">
                <circle cx="772.21" cy="190.101" r="12.568" style="fill:none;stroke:white;stroke-width:4.52px;stroke-linecap:round;stroke-miterlimit:1.5;"/>
            </g>
            <g transform="matrix(10.801754,0,0,7.531501,-5895.478161,-947.659111)">
                <circle cx="772.21" cy="190.101" r="12.568" style="fill:none;stroke:white;stroke-width:4.52px;stroke-linecap:round;stroke-miterlimit:1.5;"/>
            </g>
            <g transform="matrix(10.801754,0,0,7.531501,-4358.291089,-336.033838)">
                <circle cx="772.21" cy="190.101" r="12.568" style="fill:none;stroke:white;stroke-width:4.52px;stroke-linecap:round;stroke-miterlimit:1.5;"/>
            </g>
            <g transform="matrix(10.801754,0,0,7.531501,-5068.404682,-347.683843)">
                <circle cx="772.21" cy="190.101" r="12.568" style="fill:none;stroke:white;stroke-width:4.52px;stroke-linecap:round;stroke-miterlimit:1.5;"/>
            </g>
            <g transform="matrix(10.801754,0,0,7.531501,-5068.404682,962.941741)">
                <circle cx="772.21" cy="190.101" r="12.568" style="fill:none;stroke:white;stroke-width:4.52px;stroke-linecap:round;stroke-miterlimit:1.5;"/>
            </g>
            <g transform="matrix(10.801754,0,0,7.531501,-4358.291089,957.116738)">
                <circle cx="772.21" cy="190.101" r="12.568" style="fill:none;stroke:white;stroke-width:4.52px;stroke-linecap:round;stroke-miterlimit:1.5;"/>
            </g>
            <g transform="matrix(10.801754,0,0,7.531501,-4358.291089,957.116738)">
                <circle cx="772.21" cy="190.101" r="12.568" style="fill:none;stroke:white;stroke-width:4.52px;stroke-linecap:round;stroke-miterlimit:1.5;"/>
            </g>
            <g transform="matrix(10.801754,0,0,7.531501,-5903.832439,1592.042021)">
                <circle cx="772.21" cy="190.101" r="12.568" style="fill:none;stroke:white;stroke-width:4.52px;stroke-linecap:round;stroke-miterlimit:1.5;"/>
            </g>
        </g>
    </g>
</svg>
